<?xml version="1.0" encoding="UTF-8" standalone="no"?>
<svg
   xmlns:dc="http://purl.org/dc/elements/1.1/"
   xmlns:cc="http://creativecommons.org/ns#"
   xmlns:rdf="http://www.w3.org/1999/02/22-rdf-syntax-ns#"
   xmlns:svg="http://www.w3.org/2000/svg"
   xmlns="http://www.w3.org/2000/svg"
   xmlns:sodipodi="http://sodipodi.sourceforge.net/DTD/sodipodi-0.dtd"
   xmlns:inkscape="http://www.inkscape.org/namespaces/inkscape"
   width="348"
   height="411"
   version="1.1"
   id="svg27"
   sodipodi:docname="39logo.svg"
   inkscape:version="0.92.2 (5c3e80d, 2017-08-06)">
  <metadata
     id="metadata33">
    <rdf:RDF>
      <cc:Work
         rdf:about="">
        <dc:format>image/svg+xml</dc:format>
        <dc:type
           rdf:resource="http://purl.org/dc/dcmitype/StillImage" />
        <dc:title />
      </cc:Work>
    </rdf:RDF>
  </metadata>
  <defs
     id="defs31" />
  <sodipodi:namedview
     pagecolor="#ffffff"
     bordercolor="#666666"
     borderopacity="1"
     objecttolerance="10"
     gridtolerance="10"
     guidetolerance="10"
     inkscape:pageopacity="0"
     inkscape:pageshadow="2"
     inkscape:window-width="1222"
     inkscape:window-height="824"
     id="namedview29"
     showgrid="false"
     inkscape:zoom="1"
     inkscape:cx="141.45305"
     inkscape:cy="266.90123"
     inkscape:window-x="327"
     inkscape:window-y="166"
     inkscape:window-maximized="0"
     inkscape:current-layer="layer1" />
  <g
     id="g5">
    <title
       id="title2">background</title>
    <rect
       fill="none"
       id="canvas_background"
       height="413"
       width="350"
       y="-1"
       x="-1" />
  </g>
  <g
     id="g25"
     style="display:inline">
    <title
       id="title7">Layer 1</title>
    <g
       id="svg_1">
      <rect
         id="svg_2"
         ry="11.008"
         height="411.47998"
         width="348"
         y="0"
         x="0"
         style="fill:#ffffff;fill-opacity:0" />
      <rect
         id="svg_4"
         ry="15.903"
         height="355.42999"
         width="308.04001"
         y="37.977631"
         x="16.452"
         style="fill:#cfd8dc" />
      <rect
         id="svg_5"
         ry="12.974"
         height="307.76001"
         width="307.76001"
         y="79.987633"
         x="20.071999"
         style="fill:#f2f2f2" />
      <rect
         id="svg_6"
         height="72.206001"
         width="307.76001"
         y="35.63763"
         x="19.071999"
         style="fill:#03a9f4" />
      <path
         id="svg_7"
         d="m 326.832,107.83762 4.16965,-5.02051 -4.95438,-0.89089 z"
         inkscape:connector-curvature="0"
         style="fill:#03a9f4;fill-rule:evenodd" />
      <path
         id="svg_9"
         d="m 23.251999,30.607635 -4.132706,5.048203 4.917404,0.863174 z"
         inkscape:connector-curvature="0"
         style="fill:#03a9f4;fill-rule:evenodd" />
      <rect
         id="svg_10"
         height="72.206001"
         width="307.76001"
         y="29.60763"
         x="23.261999"
         style="fill:#29b6f6" />
      <g
         id="svg_11"
         transform="matrix(1.1718,0,0,1.1718,-177.31,61.426)"
         style="fill:#0277bd">
        <rect
           id="svg_12"
           ry="4.1631999"
           height="51.070999"
           width="29.989"
           y="-42.039665"
           x="210.68758" />
        <rect
           id="svg_13"
           ry="4.1631999"
           height="51.070999"
           width="29.989"
           y="-42.039665"
           x="359.26758" />
      </g>
      <rect
         id="svg_14"
         ry="4.8783998"
         height="59.846001"
         width="35.141998"
         y="10.07763"
         x="71.671997"
         style="fill:#0288d1" />
      <rect
         id="svg_15"
         ry="4.8783998"
         height="59.846001"
         width="35.141998"
         y="9.07763"
         x="245.772"
         style="fill:#0288d1" />
      <path
         id="svg_16"
         d="m 326.91202,321.99762 -34.758,68.74799 h 20.841 c 7.71003,0 13.917,-6.20697 13.917,-13.917 z"
         inkscape:connector-curvature="0"
         style="fill:#cfd8dc;fill-rule:evenodd" />
      <path
         id="svg_17"
         d="m 326.93204,322.00763 -34.80301,68.72498 -12.345,-16.792 c -4.56668,-6.21209 -3.2421,-14.88995 2.97,-19.45599 z"
         inkscape:connector-curvature="0"
         style="fill:#b0bec5;fill-rule:evenodd" />
    </g>
    <g
       inkscape:groupmode="layer"
       id="layer1"
       inkscape:label="New nr"
       style="display:inline">
      <text
         xml:space="preserve"
         style="font-style:normal;font-weight:normal;font-size:226.94723511px;line-height:1.25;font-family:sans-serif;letter-spacing:0px;word-spacing:0px;fill:#26a69a;fill-opacity:1;stroke:none;stroke-width:5.67368078"
         x="51.824703"
         y="318.93076"
         id="text3726"
         transform="scale(0.95607269,1.0459456)"><tspan
           sodipodi:role="line"
           id="tspan3724"
           x="51.824703"
           y="318.93076"
           style="font-style:normal;font-variant:normal;font-weight:normal;font-stretch:normal;font-family:Oxygen;-inkscape-font-specification:Oxygen;fill:#26a69a;fill-opacity:1;stroke-width:5.67368078">39</tspan></text>
    </g>
    <g
       inkscape:groupmode="layer"
       id="layer2"
       inkscape:label="Old nr"
       style="display:none">
      <path
         style="fill:#26a69a"
         id="svg_8"
         d="m 230.60001,156.76001 c -6.10501,0 -13.22699,1.35699 -21.36701,4.07031 -8.14001,2.71332 -15.26199,7.4628 -21.367,14.246 -5.42661,6.10498 -9.4957,14.245 -12.20899,24.41999 -2.71331,9.49661 -3.05261,20.349 -1.01761,32.55899 2.71332,12.21002 9.49631,22.04602 20.35001,29.50802 11.53201,6.7833 25.776,8.81879 42.73401,6.1055 -9.49661,20.34998 -21.70602,43.07398 -36.629,68.172 h 22.38498 c 26.45502,-44.77002 43.07401,-74.27701 49.857,-88.52103 6.78299,-14.24402 10.17401,-25.77701 10.17401,-34.596 0,-9.49659 -1.01779,-16.95798 -3.05271,-22.38498 -2.035,-6.10501 -5.7648,-11.87 -11.19101,-17.297 -5.4266,-5.42661 -11.531,-9.49762 -18.31399,-12.211 -6.7833,-2.71332 -13.56799,-4.07031 -20.35199,-4.07031 z M 103.41,157.77762 C 92.557007,173.37961 78.649994,186.9476 61.690995,198.47861 v 19.332 c 13.567001,-8.13999 24.759995,-16.61899 33.578018,-25.43799 v 140.41 H 115.61899 V 157.77261 H 103.41 v 0.005 z m 123.88001,19.143 c 1.1871,-0.0424 2.28909,0.0218 3.30658,0.19141 6.78332,0 12.89001,2.3728 18.31601,7.12109 6.10501,4.74829 9.83481,10.85501 11.19101,18.31601 1.35669,6.7833 0.67816,15.26099 -2.03522,25.43598 -4.06997,8.14001 -8.47818,13.90701 -13.22699,17.29901 -4.07001,3.3916 -9.8352,5.42709 -17.297,6.1055 -7.4616,0.67834 -14.58599,-1.69641 -21.36898,-7.12299 -6.10501,-6.10501 -9.83472,-13.56601 -11.19101,-22.38501 -0.67835,-8.8183 0.67865,-17.298 4.07028,-25.43799 4.07001,-8.14001 9.1568,-13.56802 15.26202,-16.281 5.0875,-2.03501 9.41138,-3.11502 12.97299,-3.24222 z"
         inkscape:connector-curvature="0" />
    </g>
  </g>
</svg>
