<?xml version="1.0" encoding="UTF-8" standalone="no"?>
<svg
   xmlns:dc="http://purl.org/dc/elements/1.1/"
   xmlns:cc="http://creativecommons.org/ns#"
   xmlns:rdf="http://www.w3.org/1999/02/22-rdf-syntax-ns#"
   xmlns:svg="http://www.w3.org/2000/svg"
   xmlns="http://www.w3.org/2000/svg"
   xmlns:sodipodi="http://sodipodi.sourceforge.net/DTD/sodipodi-0.dtd"
   xmlns:inkscape="http://www.inkscape.org/namespaces/inkscape"
   width="348"
   height="411"
   version="1.1"
   id="svg27"
   sodipodi:docname="39logo.svg"
   inkscape:version="0.92.2 (5c3e80d, 2017-08-06)">
  <metadata
     id="metadata33">
    <rdf:RDF>
      <cc:Work
         rdf:about="">
        <dc:format>image/svg+xml</dc:format>
        <dc:type
           rdf:resource="http://purl.org/dc/dcmitype/StillImage" />
        <dc:title></dc:title>
      </cc:Work>
    </rdf:RDF>
  </metadata>
  <defs
     id="defs31" />
  <sodipodi:namedview
     pagecolor="#ffffff"
     bordercolor="#666666"
     borderopacity="1"
     objecttolerance="10"
     gridtolerance="10"
     guidetolerance="10"
     inkscape:pageopacity="0"
     inkscape:pageshadow="2"
     inkscape:window-width="1222"
     inkscape:window-height="824"
     id="namedview29"
     showgrid="false"
     inkscape:zoom="1"
     inkscape:cx="111.5"
     inkscape:cy="129.27778"
     inkscape:window-x="327"
     inkscape:window-y="166"
     inkscape:window-maximized="0"
     inkscape:current-layer="layer1" />
  <g
     id="g25"
     style="display:inline">
    <title
       id="title7">Layer 1</title>
    <g
       id="svg_1">
      <rect
         id="svg_2"
         ry="11.008"
         height="411.47998"
         width="348"
         y="0"
         x="0"
         style="fill:#ffffff;fill-opacity:0" />
      <rect
         id="svg_4"
         ry="15.903"
         height="355.42999"
         width="308.04001"
         y="37.977631"
         x="16.452"
         style="fill:#cfd8dc" />
      <rect
         id="svg_5"
         ry="12.974"
         height="307.76001"
         width="307.76001"
         y="79.987633"
         x="20.071999"
         style="fill:#f2f2f2" />
      <rect
         id="svg_6"
         height="72.206001"
         width="307.76001"
         y="35.63763"
         x="19.071999"
         style="fill:#03a9f4" />
      <path
         id="svg_7"
         d="m 326.832,107.83762 4.16965,-5.02051 -4.95438,-0.89089 z"
         inkscape:connector-curvature="0"
         style="fill:#03a9f4;fill-rule:evenodd" />
      <path
         id="svg_9"
         d="m 23.251999,30.607635 -4.132706,5.048203 4.917404,0.863174 z"
         inkscape:connector-curvature="0"
         style="fill:#03a9f4;fill-rule:evenodd" />
      <rect
         id="svg_10"
         height="72.206001"
         width="307.76001"
         y="29.60763"
         x="23.261999"
         style="fill:#29b6f6" />
      <g
         id="svg_11"
         transform="matrix(1.1718,0,0,1.1718,-177.31,61.426)"
         style="fill:#0277bd">
        <rect
           id="svg_12"
           ry="4.1631999"
           height="51.070999"
           width="29.989"
           y="-42.039665"
           x="210.68758" />
        <rect
           id="svg_13"
           ry="4.1631999"
           height="51.070999"
           width="29.989"
           y="-42.039665"
           x="359.26758" />
      </g>
      <rect
         id="svg_14"
         ry="4.8783998"
         height="59.846001"
         width="35.141998"
         y="10.07763"
         x="71.671997"
         style="fill:#0288d1" />
      <rect
         id="svg_15"
         ry="4.8783998"
         height="59.846001"
         width="35.141998"
         y="9.07763"
         x="245.772"
         style="fill:#0288d1" />
      <path
         id="svg_16"
         d="m 326.91202,321.99762 -34.758,68.74799 h 20.841 c 7.71003,0 13.917,-6.20697 13.917,-13.917 z"
         inkscape:connector-curvature="0"
         style="fill:#cfd8dc;fill-rule:evenodd" />
      <path
         id="svg_17"
         d="m 326.93204,322.00763 -34.80301,68.72498 -12.345,-16.792 c -4.56668,-6.21209 -3.2421,-14.88995 2.97,-19.45599 z"
         inkscape:connector-curvature="0"
         style="fill:#b0bec5;fill-rule:evenodd" />
    </g>
    <g
       inkscape:groupmode="layer"
       id="layer1"
       inkscape:label="New nr"
       style="display:inline">
      <g
         aria-label="39"
         transform="scale(0.95607269,1.0459456)"
         style="font-style:normal;font-weight:normal;font-size:226.94723511px;line-height:1.25;font-family:sans-serif;letter-spacing:0px;word-spacing:0px;fill:#26a69a;fill-opacity:1;stroke:none;stroke-width:5.67368078"
         id="text3726">
        <path
           d="m 106.78849,321.47948 q -14.84909,0 -26.484568,-3.87849 -11.524665,-3.8785 -16.84374,-8.97594 l 6.205588,-16.28967 q 15.624785,12.30036 37.23353,12.30036 16.62211,0 26.37375,-8.20024 9.86245,-8.31106 9.86245,-23.16015 0,-8.08942 -2.54872,-14.07338 -2.43791,-6.09478 -6.64884,-9.75164 -4.10012,-3.76768 -10.63816,-5.98396 -6.42721,-2.3271 -13.29768,-3.21361 -6.75966,-0.99733 -15.735604,-1.21896 -1.108141,0 -3.324423,0 -2.216281,-0.11081 -3.324422,-0.11081 v -16.5113 h 5.540704 q 7.756985,-0.11081 13.630135,-0.7757 5.98396,-0.77569 11.8571,-2.65953 5.98396,-1.88384 9.86246,-4.98664 3.87849,-3.10279 6.3164,-8.31105 2.43791,-5.20827 2.43791,-12.30037 0,-26.59538 -30.47387,-26.59538 -10.970597,0 -20.611422,3.21361 -9.640825,3.21361 -16.511298,8.6435 l -6.205588,-16.17885 q 16.511297,-12.522 47.539238,-12.522 12.52199,0 23.16014,4.6542 10.63816,4.54337 17.50863,14.07338 6.87047,9.4192 6.87047,22.16282 0,15.51397 -7.64617,25.48724 -7.64617,9.97327 -21.49793,14.29501 15.51397,3.32443 24.26828,14.51665 8.86513,11.19222 8.86513,28.3684 0,21.83038 -15.62479,34.90644 -15.62478,13.07606 -40.11469,13.07606 z"
           style="font-style:normal;font-variant:normal;font-weight:normal;font-stretch:normal;font-family:Oxygen;-inkscape-font-specification:Oxygen;fill:#26a69a;fill-opacity:1;stroke-width:5.67368078"
           id="path34" />
        <path
           d="m 235.77608,252.66394 q -14.07339,0 -25.9305,-6.09478 -11.74629,-6.20559 -18.94921,-17.84107 -7.20291,-11.63547 -7.20291,-26.48456 0,-22.60607 15.51397,-37.45516 15.51397,-14.84909 40.55795,-14.84909 12.96525,0 23.49259,4.21094 10.63815,4.10012 17.39781,11.41385 6.87047,7.20291 10.52734,16.95455 3.76768,9.64083 3.76768,20.94386 0,15.84642 -5.42989,28.70085 -5.42989,12.85443 -18.72758,30.91713 -4.76501,6.3164 -15.95723,20.27898 -11.08141,13.96257 -19.83572,24.71154 l -8.75431,10.85978 h -24.3791 l 58.84227,-72.91567 q -12.52199,6.64885 -24.93316,6.64885 z m 38.23085,-51.30692 q 0,-15.18153 -8.64349,-24.82236 -8.53269,-9.75164 -24.93317,-9.75164 -16.5113,0 -26.15212,10.1949 -9.64083,10.08408 -9.64083,24.93317 0,15.51397 9.30838,24.82235 9.30839,9.30838 25.81968,9.30838 17.50863,0 25.81968,-9.64082 8.42187,-9.64083 8.42187,-25.04398 z"
           style="font-style:normal;font-variant:normal;font-weight:normal;font-stretch:normal;font-family:Oxygen;-inkscape-font-specification:Oxygen;fill:#26a69a;fill-opacity:1;stroke-width:5.67368078"
           id="path36" />
      </g>
    </g>
  </g>
  <g
     id="g5">
    <title
       id="title2">background</title>
    <rect
       fill="none"
       id="canvas_background"
       height="413"
       width="350"
       y="-1"
       x="-1" />
  </g>
</svg>
