<?xml version="1.0" encoding="UTF-8"?>
<svg width="200.79mm" height="200.79mm" version="1.1" viewBox="0 0 711.47785 711.47785" xmlns="http://www.w3.org/2000/svg">
 <g transform="translate(-18.158 -.56237)">
  <rect x="18.158" y=".56237" width="711.48" height="711.48" ry="11.008" fill="#90a4ae"/>
  <circle cx="373.9" cy="356.3" r="285.14" fill="#fff"/>
  <rect x="216.61" y="192.54" width="308.04" height="355.43" ry="15.903" fill="#cfd8dc"/>
  <rect x="219.23" y="237.55" width="307.76" height="307.76" ry="12.974" fill="#f2f2f2"/>
  <rect x="219.23" y="190.2" width="307.76" height="72.206" fill="#03a9f4"/>
  <path d="m526.99 262.4 4.1697-5.0205-4.9544-0.89091z" fill="#03a9f4" fill-rule="evenodd"/>
  <path transform="translate(18.158 .56237)" d="m412.6 310.76c-6.105 0-13.227 1.357-21.367 4.0703s-15.262 7.4628-21.367 14.246c-5.4266 6.105-9.4957 14.245-12.209 24.42-2.7133 9.4966-3.0526 20.349-1.0176 32.559 2.7133 12.21 9.4963 22.046 20.35 29.508 11.532 6.7833 25.776 8.8188 42.734 6.1055-9.4966 20.35-21.706 43.074-36.629 68.172h22.385c26.455-44.77 43.074-74.277 49.857-88.521s10.174-25.777 10.174-34.596c0-9.4966-1.0178-16.958-3.0527-22.385-2.035-6.105-5.7648-11.87-11.191-17.297-5.4266-5.4266-11.531-9.4976-18.314-12.211-6.7833-2.7133-13.568-4.0703-20.352-4.0703zm-127.19 1.0176c-10.853 15.602-24.76 29.17-41.719 40.701v19.332c13.567-8.14 24.76-16.619 33.578-25.438v140.41h20.35v-175.01h-12.209zm123.88 19.143c1.1871-0.0424 2.2891 0.02182 3.3066 0.19141 6.7833 0 12.89 2.3728 18.316 7.1211 6.105 4.7483 9.8348 10.855 11.191 18.316 1.3567 6.7833 0.67817 15.261-2.0352 25.436-4.07 8.14-8.4782 13.907-13.227 17.299-4.07 3.3916-9.8352 5.4271-17.297 6.1055-7.4616 0.67833-14.586-1.6964-21.369-7.123-6.105-6.105-9.8347-13.566-11.191-22.385-0.67833-8.8183 0.67866-17.298 4.0703-25.438 4.07-8.14 9.1568-13.568 15.262-16.281 5.0875-2.035 9.4114-3.115 12.973-3.2422z" fill="#26a69a"/>
  <path d="m223.41 185.17-4.1327 5.0482 4.9174 0.86318z" fill="#03a9f4" fill-rule="evenodd"/>
  <rect x="223.42" y="185.17" width="307.76" height="72.206" fill="#29b6f6"/>
  <g transform="matrix(1.1718 0 0 1.1718 -177.31 61.426)" fill="#0277bd">
   <rect x="381.5" y="89.862" width="29.989" height="51.071" ry="4.1632"/>
   <rect x="530.08" y="89.862" width="29.989" height="51.071" ry="4.1632"/>
  </g>
  <rect x="271.83" y="164.64" width="35.142" height="59.846" ry="4.8784" fill="#0288d1"/>
  <rect x="445.93" y="164.64" width="35.142" height="59.846" ry="4.8784" fill="#0288d1"/>
  <path d="m527.07 476.56-34.758 68.748h20.841c7.71 0 13.917-6.207 13.917-13.917v-54.831z" fill="#cfd8dc" fill-rule="evenodd"/>
  <path d="m527.09 476.57-34.803 68.725-12.345-16.792c-4.5667-6.2121-3.2421-14.89 2.97-19.456l44.178-32.477z" fill="#b0bec5" fill-rule="evenodd"/>
 </g>
</svg>
