<svg width="348" height="411" xmlns="http://www.w3.org/2000/svg">

 <g>
  <title>background</title>
  <rect fill="none" id="canvas_background" height="413" width="350" y="-1" x="-1"/>
 </g>
 <g>
  <title>Layer 1</title>
  <g id="svg_1">
   <rect fill-opacity="0" id="svg_2" fill="#ffffff" ry="11.008" height="411.479966" width="348" y="0" x="0"/>
   <rect id="svg_4" fill="#cfd8dc" ry="15.903" height="355.43" width="308.04" y="37.97763" x="16.451999"/>
   <rect id="svg_5" fill="#f2f2f2" ry="12.974" height="307.76" width="307.76" y="79.98763" x="20.071999"/>
   <rect id="svg_6" fill="#03a9f4" height="72.206" width="307.76" y="35.63763" x="19.071999"/>
   <path id="svg_7" fill-rule="evenodd" fill="#03a9f4" d="m326.832001,107.837616l4.169647,-5.020508l-4.954376,-0.890884l0.784729,5.911392z"/>
   <path id="svg_8" fill="#26a69a" d="m230.600006,156.76001c-6.105011,0 -13.22699,1.356995 -21.367004,4.070313s-15.261993,7.462799 -21.367004,14.246002c-5.426605,6.10498 -9.495697,14.244995 -12.208984,24.419983c-2.713318,9.496613 -3.052612,20.348999 -1.017609,32.55899c2.713318,12.210022 9.496307,22.046021 20.350006,29.508026c11.532013,6.783295 25.776001,8.818787 42.734009,6.105499c-9.496613,20.349976 -21.706024,43.073975 -36.628998,68.171997l22.384979,0c26.455017,-44.77002 43.074005,-74.277008 49.856995,-88.521027s10.174011,-25.777008 10.174011,-34.596008c0,-9.496582 -1.017792,-16.957977 -3.052704,-22.384979c-2.035004,-6.105011 -5.764801,-11.869995 -11.19101,-17.296997c-5.426605,-5.426605 -11.531006,-9.49762 -18.313995,-12.210999c-6.783295,-2.713318 -13.567993,-4.070313 -20.35199,-4.070313l-0.000702,-0.000488zm-127.190002,1.017609c-10.852997,15.60199 -24.76001,29.169983 -41.719009,40.700989l0,19.332001c13.567001,-8.139984 24.759995,-16.618988 33.578018,-25.437988l0,140.410004l20.349976,0l0,-175.01001l-12.208984,0l0,0.005005zm123.880005,19.143005c1.187103,-0.042419 2.289093,0.02182 3.30658,0.191406c6.783325,0 12.890015,2.372803 18.31601,7.121094c6.105011,4.748291 9.834808,10.855011 11.19101,18.31601c1.356689,6.783295 0.678162,15.260986 -2.035217,25.435974c-4.069977,8.140015 -8.47818,13.907013 -13.22699,17.299011c-4.070007,3.391602 -9.835205,5.427094 -17.296997,6.105499c-7.461609,0.678345 -14.585999,-1.696411 -21.368988,-7.122986c-6.105011,-6.105011 -9.834717,-13.56601 -11.19101,-22.38501c-0.678345,-8.818298 0.67865,-17.298004 4.070282,-25.437988c4.070007,-8.140015 9.156799,-13.568024 15.262024,-16.281006c5.087494,-2.035004 9.411377,-3.115021 12.972992,-3.242218l0.000305,0.000214z"/>
   <path id="svg_9" fill-rule="evenodd" fill="#03a9f4" d="m23.251999,30.607635l-4.132706,5.048203l4.917404,0.863174l-0.784698,-5.911377z"/>
   <rect id="svg_10" fill="#29b6f6" height="72.206" width="307.76" y="29.60763" x="23.261999"/>
   <g id="svg_11" fill="#0277bd" transform="matrix(1.1718, 0, 0, 1.1718, -177.31, 61.426)">
    <rect id="svg_12" ry="4.1632" height="51.071" width="29.989" y="-42.039666" x="210.687576"/>
    <rect id="svg_13" ry="4.1632" height="51.071" width="29.989" y="-42.039666" x="359.267576"/>
   </g>
   <rect id="svg_14" fill="#0288d1" ry="4.8784" height="59.846" width="35.142" y="10.07763" x="71.671999"/>
   <rect id="svg_15" fill="#0288d1" ry="4.8784" height="59.846" width="35.142" y="9.07763" x="245.771999"/>
   <path id="svg_16" fill-rule="evenodd" fill="#cfd8dc" d="m326.912018,321.99762l-34.757996,68.747986l20.841003,0c7.710022,0 13.916992,-6.20697 13.916992,-13.916992l0,-54.830994z"/>
   <path id="svg_17" fill-rule="evenodd" fill="#b0bec5" d="m326.932037,322.007629l-34.803009,68.724976l-12.345001,-16.791992c-4.566681,-6.212097 -3.242096,-14.889954 2.970001,-19.455994l44.178009,-32.47699z"/>
  </g>
 </g>
</svg>